<svg id="Layer_1" data-name="Layer 1" xmlns="http://www.w3.org/2000/svg" viewBox="0 0 300 400"><defs><style>.cls-1{fill:#f0f0f0;}</style></defs><title>darkgrey_grid</title><path class="cls-1" d="M79.62,0V43.18H107V0H208.92V21H300V33H208.92V54H300V65.91H120.38V97.16H300v15.91H186.62v34.66H300v10.79H80.89V293.75H300v13.07H182.17v33.52H300v11.93H272v25.57h28V400H68.15V352.27H0V340.34H68.15V317.05H0v-12.5H68.15v-133H0V159.66H68.15V26.14H0V0Zm4.46,55.68V97.16h27.38V55.68ZM124.84,54H200V11.36H124.84ZM84.08,356.82h89.17v-50H84.08Zm0-243.75v34.66h93.63V113.07Z"/></svg>